<svg><defs><font id="heoblogIcon" horiz-adv-x="1024" vert-adv-y="1024"><font-face ascent="812" descent="-212" font-family="heoblogIcon" font-weight="400" units-per-em="1024"/><glyph d="M20 20h30v-40Z" glyph-name="x" horiz-adv-x="100" unicode="x"/><glyph d="m280.617 812-.005-371.558H672.96V159.825h-392.35l.006-371.557H0l-.005 371.557h-2.593v280.617h2.593L0 812zm1652.522 0V567.76h-488.481V422.253h401.658v-244.24h-401.658V32.509h535.25v-244.241h-815.867V812zm-1195.22 0h280.617V-211.732H737.919Zm1813.617 0c115.425 0 221.972-37.628 307.806-101.17l-176.867-176.875c-38.712 21.527-83.377 33.804-130.94 33.804-147.863 0-267.73-118.656-267.73-265.027s119.867-265.027 267.73-265.027c147.865 0 267.732 118.657 267.732 265.027 0 46.682-12.193 90.546-33.597 128.64l177.235 177.237C3027.635 523.439 3066 417.52 3066 302.732c0-281.26-230.334-509.268-514.464-509.268S2037.07 21.471 2037.07 302.732 2267.405 812 2551.536 812" glyph-name="heologo" horiz-adv-x="3066" unicode="" vert-adv-y="1024"/><glyph d="M275.106 744.905 434.18 584.421h155.59l159.124 160.435c19.172 19.336 50.257 19.336 69.43 0 19.172-19.336 19.172-50.687 0-70.023L728.58 584.42h102.353c94.846 0 171.734-77.546 171.734-173.203V15.327c0-95.658-76.888-173.203-171.734-173.203H193.067c-94.846 0-171.734 77.545-171.734 173.203v395.891c0 95.657 76.888 173.203 171.734 173.203H295.37l-89.694 90.51c-19.173 19.337-19.173 50.688 0 70.024s50.257 19.336 69.43 0zm555.827-259.457H193.067c-37.91 0-69.617-29.046-73.257-67.104l-.343-7.126V15.327c0-38.235 28.8-70.213 66.534-73.884l7.066-.346h637.866c37.91 0 69.618 29.046 73.257 67.103l.343 7.127v395.891c0 40.996-32.952 74.23-73.6 74.23m-515.2-148.46c27.1 0 49.067-22.155 49.067-49.486v-98.973c0-27.33-21.968-49.486-49.067-49.486-27.098 0-49.066 22.155-49.066 49.486v98.973c0 27.33 21.968 49.486 49.066 49.486m392.534 0c27.098 0 49.066-22.155 49.066-49.486v-98.973c0-27.33-21.968-49.486-49.066-49.486-27.1 0-49.067 22.155-49.067 49.486v98.973c0 27.33 21.968 49.486 49.067 49.486" glyph-name="bilibili-line" horiz-adv-x="1024" unicode="" vert-adv-y="1024"/><glyph d="M234.413-27.62c-15.027 9.998-27.95 22.747-43.076 40.795a2516 2516 0 0 0-23.341 28.946c-23.19 28.747-37.816 41.996-52.943 47.445-26.045 9.332-39.578 37.972-30.228 63.968 9.35 25.995 38.043 39.504 64.087 30.171 37.667-13.499 63.161-36.746 97.522-79.39-4.708 5.849 17.03-21.348 21.688-26.948 9.517-11.349 16.529-18.248 22.039-21.897 10.217-6.85 29.401-9.8 57.6-7 1.153 19.098 4.709 37.646 10.118 54.744C209.22 139.51 125.072 235.2 125.072 422.977c0 61.993 18.532 117.787 52.993 164.582-10.92 44.694-9.267 98.738 15.126 159.581a50.05 50.05 0 0 0 31.556 29.097c4.057 1.2 6.36 1.75 10.418 2.35 40.22 6.149 97.02-8.5 171.05-54.794a588.6 588.6 0 0 0 134.587 15.398c45.68 0 91.06-5.2 134.436-15.398 73.98 46.644 130.88 61.293 171.401 54.793 4.257-.65 7.864-1.5 10.92-2.5a50.05 50.05 0 0 0 30.853-28.996c24.393-60.793 26.046-114.837 15.127-159.481 34.61-46.795 52.993-102.239 52.993-164.632 0-187.828-83.847-283.217-232.508-319.563 6.26-20.747 9.516-43.945 9.516-68.992q.008-67.893-.6-135.784c23.186-5.049 39.64-25.645 39.41-49.33-.23-23.687-17.082-43.96-40.362-48.559-57.05-11.399-99.325 26.597-99.325 76.241l.1 22.298.25 35.246c.251 35.396.351 66.892.351 99.888 0 34.846-9.166 57.594-21.287 67.992-33.108 28.497-16.329 82.74 27.048 87.59 148.61 16.648 217.231 74.092 217.231 232.973 0 47.745-15.627 87.19-45.73 120.187a49.92 49.92 0 0 0-9.517 52.244c8.315 20.697 11.87 47.844 4.809 80.69l-.501-.15c-24.594-6.949-55.598-21.997-93.064-47.444a50.17 50.17 0 0 0-41.723-6.75A483 483 0 0 1 540.8 639.204c-44.579 0-88.756-5.95-129.828-17.498a50.17 50.17 0 0 0-41.573 6.699c-37.666 25.347-68.821 40.345-93.565 47.344-7.212-32.646-3.656-59.693 4.608-80.34a49.92 49.92 0 0 0-9.466-52.244c-29.903-32.697-45.73-72.892-45.73-120.187 0-158.581 68.67-216.375 216.48-232.973 43.326-4.85 60.156-58.843 27.248-87.39-9.617-8.399-21.488-36.595-21.488-68.192V-123.06c0-49.294-41.824-86.24-98.173-76.39-23.575 4.13-40.927 24.334-41.415 48.221s16.025 44.78 39.412 49.867v49.494c-45.58-3.05-83.246 4.4-112.898 24.247" glyph-name="github-line" horiz-adv-x="1024" unicode="" vert-adv-y="1024"/><glyph d="M900.438 324.556a390.57 390.57 0 0 1-77.182 213.49 478 478 0 0 0-45.141-42.689 645.6 645.6 0 0 0-162.558-98.624c8.194-17.173 15.701-33.807 22.325-49.508v-.147a451 451 0 0 0 5.398-13.248c74.287 8.341 152.597 5.299 228.503-4.956 10.108-1.374 19.627-2.846 28.655-4.318m-460.49 365.547a2265 2265 0 0 0 132.087-209.515c60.008 23.65 109.615 53.483 149.555 86.7a387 387 0 0 1 39.057 37.046 390.97 390.97 0 0 1-252.203 91.755 395 395 0 0 1-68.497-5.937zM128.324 401.836c33.426.844 66.811 2.857 100.096 6.035a1547 1547 0 0 1 238.562 40.333 2668 2668 0 0 1-132.48 207.405C232.215 604.936 156.98 512.333 128.325 401.836m75.072-345.331c19.038 27.82 44.062 59.125 77.28 93.178 71.343 73.109 155.541 130.026 252.988 161.429l3.042.883c-8.096 17.86-15.702 33.807-23.356 48.821-90.086-26.25-184.981-42.639-279.533-51.127-46.122-4.17-87.486-5.986-117.907-6.28a390.9 390.9 0 0 1 87.535-246.904zM655.89-60.274a1764 1764 0 0 1-80.077 280.122c-98.231-35.672-176.493-87.83-236.992-150.046a479.4 479.4 0 0 1-64.62-81.205 390.77 390.77 0 0 1 234.243-77.575A391.4 391.4 0 0 1 655.89-60.372zm91.902 52.747a392.44 392.44 0 0 1 146.562 238.955c-16.683 4.17-37.83 8.34-61.088 11.58a590 590 0 0 1-156.032 1.618A1932 1932 0 0 0 747.792-7.576zM508.444-187.111c-270.995 0-490.666 219.671-490.666 490.667s219.671 490.666 490.666 490.666 490.667-219.671 490.667-490.666S779.44-187.111 508.444-187.111" glyph-name="dribbble-line" horiz-adv-x="1024" unicode="" vert-adv-y="1024"/><glyph d="M339.776-52.838a346 346 0 0 0 7.066 49.115c3.09 14.475 12.463 55.446 26.201 114.816l.344 1.472 18.988 81.844c3.877 16.682 6.87 29.636 8.882 33.954a169.8 169.8 0 0 0-13.935 69.822c0 65.602 37.094 116.435 85.18 116.435 17.663.294 34.542-7.36 46.22-20.903 11.678-13.493 17.075-31.599 14.818-48.87 0-22.227-4.17-39.155-22.227-99.85-3.484-11.679-5.888-19.824-8.145-28.018-2.502-9.224-4.661-17.566-6.477-25.613-4.71-18.94-.392-39.106 11.629-54.267a58.88 58.88 0 0 1 49.361-22.375c73.207 0 127.573 97.398 127.573 223.156 0 96.66-63.296 160.644-168.396 160.644a190.28 190.28 0 0 1-142.245-56.23 202.65 202.65 0 0 1-58.634-145.287A125.27 125.27 0 0 1 341.1 216.34c8.88-6.869 12.267-18.792 8.587-28.949-2.012-8.243-6.87-27.085-8.636-33.365a20.12 20.12 0 0 0-10.599-14.573 19.04 19.04 0 0 0-17.418-.098c-56.918 23.503-88.124 87.24-88.124 168.79 0 146.463 122.225 273.987 303.82 273.987 153.825 0 268.935-114.276 268.935-252.202 0-173.304-94.797-299.503-230.123-299.503a123.06 123.06 0 0 0-100.39 47.055l-2.11-8.685-10.157-41.805-.098-.343c-7.163-29.44-12.168-49.901-14.13-57.605a357.7 357.7 0 0 0-19.628-51.029c202.73-48.261 407.836 70.308 467.184 270.073s-47.75 411.087-243.945 481.343c-196.194 70.256-413.092-25.047-494.042-217.076-80.95-192.03 2.267-413.845 189.549-505.243zM512-190.667C241.005-190.667 21.333 29.005 21.333 300S241.005 790.667 512 790.667 1002.667 570.995 1002.667 300 782.995-190.667 512-190.667" glyph-name="pinterest-line" horiz-adv-x="1024" unicode="" vert-adv-y="1024"/><glyph d="M877.44 182.437c0-150.588-202.05-287.74-442.727-287.74-220.784.045-413.38 108.933-413.38 272.645 0 87.21 52.632 183.063 144.514 272.69 126.315 122.998 277.83 180.644 350.489 109.65 22.212-21.59 32.248-50.256 32.07-83.223 88.09 25.8 162.8 18.096 199.954-33.683 20.027-27.905 23.729-61.812 14.54-98.854 67.396-27.323 114.54-79.281 114.54-151.485m-198.036 92.718c-17.217 18.365-17.841 41.208-8.831 63.156 9.277 22.754 9.5 36.37 5.352 42.104-11.775 16.483-68.376 16.26-142.461-13.93a90.8 90.8 0 0 0-22.703-6.27c-15.344-2.061-29.929-.046-43.845 11.869-18.689 16.08-21.142 38.297-14.362 58.945 9.59 30.01 8.028 48.196 1.65 54.422-8.296 8.062-34.656 8.555-73.996-6.405-47.68-18.14-102.497-54.825-152.274-103.29-76.137-74.308-117.395-149.468-117.395-208.413C110.54 66.92 256.66-15.72 434.713-15.72c197.144 0 353.522 106.156 353.522 198.157 0 33.056-28.412 59.976-74.62 73.996-17.574 5.061-23.908 7.659-34.21 18.678zm314.629 72.428c-6.183-23.946-30.526-38.324-54.371-32.115s-38.163 30.654-31.98 54.6c15.593 60.041-.859 123.91-43.488 168.826-42.629 44.917-105.366 64.486-165.834 51.727-15.687-3.474-32.022 1.791-42.765 13.784s-14.235 28.862-9.141 44.16c5.094 15.3 17.987 26.666 33.753 29.758 90.659 19.06 184.686-10.313 248.582-77.652 63.896-67.34 88.575-163.072 65.244-253.088" glyph-name="weibo-line" horiz-adv-x="1024" unicode="" vert-adv-y="1024"/><glyph d="M561.067-89.491c205.427 26.139 355.226 207.348 342.258 414.026C890.358 531.212 719.084 692.277 512 692.533c-207.358.155-379.07-161-392.055-367.953C106.96 117.63 257.182-63.726 462.933-89.49v291.358H364.8V300h98.133v81.156c0 65.602 6.87 89.4 19.627 113.393a133.76 133.76 0 0 0 55.74 55.691c18.743 10.059 42.05 16.094 82.775 18.694 16.143 1.03 37.045-.245 62.707-3.925v-93.227H659.2c-44.994 0-63.59-2.11-74.68-8.046a35.67 35.67 0 0 1-15.406-15.407c-5.888-11.09-8.047-22.08-8.047-67.124V300h122.666L659.2 201.867h-98.133zM512-190.667C241.005-190.667 21.333 29.005 21.333 300S241.005 790.667 512 790.667 1002.667 570.995 1002.667 300 782.995-190.667 512-190.667" glyph-name="facebook-circle-line" horiz-adv-x="1024" unicode="" vert-adv-y="1024"/><glyph d="m260.16 241.62 14.35-133.02H62.54v374.19h205.28V253.11H143.88V173.2h52.16l-7.18 68.43h71.3ZM143.88 425.37v-30.62h43.54v30.62zm43.55-114.84v31.58h-43.54v-31.58zm290.92 168.91V140.19H376.91v57.41h21.05v224.42h-30.62V108.6H286v370.84zm88.53-70.82h-33.5v57.42h79.43l-4.79 25.36h82.78l4.79-25.36h82.3v-57.42H646.3l-34.93-69.38h11.96l29.19 55.51h86.61l-107.66-204.8h-86.61l48.33 91.87h-59.33v57.42zm222.5-100.49-39.24-74.65 31.58-124.89h-54.07l-13.88 55.51-29.19-55.51H533.86v57.42h98.57l75.12 142.11h81.83Zm73.68-122.97h-66.99v270.83h66.99zm97.62 305.76V108.6H820v57.42h59.33v324.9z" glyph-name="bblogo" horiz-adv-x="1024" unicode="" vert-adv-y="1024"/><glyph d="M512 726.667c235.52 0 426.667-191.147 426.667-426.667S747.52-126.667 512-126.667 85.333 64.48 85.333 300 276.48 726.667 512 726.667m0-85.334c-188.587 0-341.333-152.746-341.333-341.333S323.413-41.333 512-41.333 853.333 111.413 853.333 300 700.587 641.333 512 641.333m0-128c77.653 0 145.621-41.514 182.955-103.594l-73.131-43.904A128 128 0 1 1 512 172a127.92 127.92 0 0 1 109.781 62.123l73.174-43.862A213.29 213.29 0 0 0 298.667 300c0 117.76 95.573 213.333 213.333 213.333" glyph-name="copyright-line" horiz-adv-x="1024" unicode="" vert-adv-y="1024"/><glyph d="M512 726.667c235.648 0 426.667-191.019 426.667-426.667S747.648-126.667 512-126.667 85.333 64.352 85.333 300 276.352 726.667 512 726.667m0-85.334a341.333 341.333 0 1 1 0-682.666 341.333 341.333 0 0 1 0 682.666m170.667-384V172H341.333v85.333zm0 170.667v-85.333H341.333V428z" glyph-name="creative-commons-nd-line" horiz-adv-x="1024" unicode="" vert-adv-y="1024"/><glyph d="M512 726.667c235.648 0 426.667-191.019 426.667-426.667S747.648-126.667 512-126.667 85.333 64.352 85.333 300 276.352 726.667 512 726.667m0-85.334a341.333 341.333 0 1 1 0-682.666 341.333 341.333 0 0 1 0 682.666m85.333-256A42.667 42.667 0 0 0 640 342.667V172h-64V1.333H448V172h-64v170.667a42.667 42.667 0 0 0 42.667 42.666zM512 598.667A85.333 85.333 0 1 0 512 428a85.333 85.333 0 0 0 0 170.667" glyph-name="creative-commons-by-line" horiz-adv-x="1024" unicode="" vert-adv-y="1024"/><glyph d="M512 726.667c235.648 0 426.667-191.019 426.667-426.667 0-102.4-36.096-196.437-96.256-269.995l1.45-1.536-60.33-60.33-1.536 1.45A424.92 424.92 0 0 0 512-126.667C276.352-126.667 85.333 64.352 85.333 300S276.352 726.667 512 726.667M170.667 300A341.333 341.333 0 0 1 721.28 30.347L619.947 131.723a107 107 0 0 0-22.614-2.39h-42.666V44h-85.334v85.333H362.667v85.334h234.666a21.333 21.333 0 0 1 3.84 42.325l-3.84.341H426.667a106.667 106.667 0 0 0-92.374 160l-91.989 91.99A339.84 339.84 0 0 1 170.667 300M512 641.333c-78.848 0-151.467-26.752-209.28-71.68L404.053 468.32a107 107 0 0 0 22.614 2.347h42.666V556h85.334v-85.333h106.666v-85.334H426.667a21.333 21.333 0 0 1-3.84-42.325l3.84-.341h170.666a106.667 106.667 0 0 0 92.374-160l91.989-91.947A341.333 341.333 0 0 1 512 641.333" glyph-name="creative-commons-nc-line" horiz-adv-x="1024" unicode="" vert-adv-y="1024"/><glyph d="M469.333 726.667c211.968 0 384-172.032 384-384s-172.032-384-384-384-384 172.032-384 384 172.032 384 384 384m0-682.667C634.325 44 768 177.675 768 342.667c0 165.034-133.675 298.666-298.667 298.666-165.034 0-298.666-133.632-298.666-298.666C170.667 177.675 304.299 44 469.333 44m362.027-3.03L952.064-79.69l-60.373-60.374L771.029-19.36z" glyph-name="search-2-line" horiz-adv-x="1024" unicode="" vert-adv-y="1024"/><glyph d="M128 257.333h341.333V684H128zM128-84h341.333v256H128zm426.667 0H896v426.667H554.667zm0 768V428H896v256z" glyph-name="dashboard-fill" horiz-adv-x="1024" unicode="" vert-adv-y="1024"/><glyph d="M260.95-45.045A426.07 426.07 0 0 0 85.332 300c0 235.648 191.019 426.667 426.667 426.667S938.667 535.648 938.667 300A426.07 426.07 0 0 0 763.05-45.045l-43.307 74.197a341.333 341.333 0 1 1-415.488 0zm86.783 148.693a256 256 0 1 0 328.534 0l-43.947 75.35a170.667 170.667 0 1 1-240.64 0zm121.6 153.685h85.334l42.666-384H426.667z" glyph-name="signal-tower-fill" horiz-adv-x="1024" unicode="" vert-adv-y="1024"/><glyph d="m733.867-41.333 76.8-64v-21.334H213.333v21.334l76.8 64h-76.8A85.333 85.333 0 0 0 128 44v469.333A170.667 170.667 0 0 0 298.667 684h426.666A170.667 170.667 0 0 0 896 513.333V44a85.333 85.333 0 0 0-85.333-85.333zm-435.2 640a85.333 85.333 0 0 1-85.334-85.334V44h597.334v469.333a85.333 85.333 0 0 1-85.334 85.334zM512 86.667a85.333 85.333 0 1 0 0 170.666 85.333 85.333 0 0 0 0-170.666M256 513.333h512V342.667H256z" glyph-name="train-line" horiz-adv-x="1024" unicode="" vert-adv-y="1024"/><glyph d="M288 705.333A181.333 181.333 0 0 0 469.333 524V342.667H288a181.333 181.333 0 1 0 0 362.666m0-448h181.333V76A181.333 181.333 0 1 0 288 257.333m448 448a181.333 181.333 0 1 0 0-362.666H554.667V524A181.333 181.333 0 0 0 736 705.333m-181.333-448H736A181.333 181.333 0 1 0 554.667 76z" glyph-name="apps-fill" horiz-adv-x="1024" unicode="" vert-adv-y="1024"/><glyph d="M426.667 684h170.666a341.333 341.333 0 1 0 0-682.667V-148c-213.333 85.333-512 213.333-512 490.667A341.333 341.333 0 0 0 426.667 684" glyph-name="chat-1-fill" horiz-adv-x="1024" unicode="" vert-adv-y="1024"/><glyph d="M512 726.667c235.648 0 426.667-191.019 426.667-426.667S747.648-126.667 512-126.667 85.333 64.352 85.333 300 276.352 726.667 512 726.667m0-128c-164.95 0-298.667-133.718-298.667-298.667 0-79.019 30.72-150.912 80.811-204.33l6.656-6.827 60.33 60.288C322.56 187.787 298.668 241.12 298.668 300c0 117.803 95.53 213.333 213.333 213.333 19.115 0 37.632-2.517 55.253-7.253l66.688 66.645c-37.248 16.64-78.506 25.942-121.941 25.942m272.725-176.768-66.602-66.646a214.4 214.4 0 0 0 7.21-55.253c0-58.88-23.893-112.213-62.464-150.87L723.2 88.8c54.016 54.059 87.467 128.725 87.467 211.2 0 43.435-9.259 84.693-25.942 121.899m-91.733 119.466-158.933-158.89c-7.04 1.877-14.422 2.858-22.059 2.858-47.147 0-85.333-38.186-85.333-85.333s38.186-85.333 85.333-85.333 85.333 38.186 85.333 85.333c0 7.637-.981 15.019-2.858 22.059l158.89 158.976-60.33 60.33Z" glyph-name="dashboard-2-fill" horiz-adv-x="1024" unicode="" vert-adv-y="1024"/><glyph d="m512 360.33 211.2 211.2 60.33-60.33L572.33 300l211.2-211.2-60.33-60.33L512 239.67 300.8 28.47 240.47 88.8 451.67 300l-211.2 211.2 60.33 60.33Z" glyph-name="close-fill" horiz-adv-x="1024" unicode="" vert-adv-y="1024"/><glyph d="M554.667 420.747A128 128 0 1 1 640 300v407.125C813.099 652.768 938.667 491.061 938.667 300c0-235.648-191.019-426.667-426.667-426.667S85.333 64.352 85.333 300 276.352 726.667 512 726.667c14.379 0 28.63-.726 42.667-2.134z" glyph-name="disc-fill" horiz-adv-x="1024" unicode="" vert-adv-y="1024"/><glyph d="M130.37 641.333c-60.14 0-109.037-49.427-109.037-110.222V90.222C21.333 29.428 70.23-20 130.37-20h763.26c60.14 0 109.037 49.428 109.037 110.222v440.89c0 60.794-48.897 110.221-109.037 110.221zm27.26-110.222h54.518c14.993 0 27.26-12.4 27.26-27.555v-55.112c0-15.155-12.267-27.555-27.26-27.555H157.63c-14.993 0-27.26 12.4-27.26 27.555v55.112c0 15.155 12.267 27.555 27.26 27.555m-27.26-192.889c0 15.156 12.267 27.556 27.26 27.556h54.518c14.993 0 27.26-12.4 27.26-27.556v-55.11c0-15.156-12.267-27.556-27.26-27.556H157.63c-14.993 0-27.26 12.4-27.26 27.555zm27.26-137.778h54.518c14.993 0 27.26-12.4 27.26-27.555v-55.111c0-15.156-12.267-27.556-27.26-27.556H157.63c-14.993 0-27.26 12.4-27.26 27.556v55.11c0 15.156 12.267 27.556 27.26 27.556m136.296 303.112c0 15.155 12.267 27.555 27.26 27.555h54.518c14.992 0 27.259-12.4 27.259-27.555v-55.112c0-15.155-12.267-27.555-27.26-27.555h-54.518c-14.992 0-27.26 12.4-27.26 27.555zm27.26-137.778h54.518c14.992 0 27.259-12.4 27.259-27.556v-55.11c0-15.156-12.267-27.556-27.26-27.556h-54.518c-14.992 0-27.26 12.4-27.26 27.555v55.111c0 15.156 12.268 27.556 27.26 27.556m-27.26-192.89c0 15.156 12.267 27.556 27.26 27.556h381.629c14.992 0 27.26-12.4 27.26-27.555v-55.111c0-15.156-12.268-27.556-27.26-27.556h-381.63c-14.992 0-27.26 12.4-27.26 27.556zM484.74 531.112h54.518c14.993 0 27.26-12.4 27.26-27.555v-55.112c0-15.155-12.267-27.555-27.26-27.555h-54.518c-14.993 0-27.26 12.4-27.26 27.555v55.112c0 15.155 12.267 27.555 27.26 27.555m-27.26-192.889c0 15.156 12.267 27.556 27.26 27.556h54.518c14.993 0 27.26-12.4 27.26-27.556v-55.11c0-15.156-12.267-27.556-27.26-27.556h-54.518c-14.993 0-27.26 12.4-27.26 27.555zm190.815 192.89h54.519c14.992 0 27.26-12.4 27.26-27.556v-55.112c0-15.155-12.268-27.555-27.26-27.555h-54.519c-14.992 0-27.259 12.4-27.259 27.555v55.112c0 15.155 12.267 27.555 27.26 27.555m-27.259-192.89c0 15.156 12.267 27.556 27.26 27.556h54.518c14.992 0 27.26-12.4 27.26-27.556v-55.11c0-15.156-12.268-27.556-27.26-27.556h-54.519c-14.992 0-27.259 12.4-27.259 27.555zm190.815 192.89h54.518c14.993 0 27.26-12.4 27.26-27.556v-55.112c0-15.155-12.267-27.555-27.26-27.555h-54.518c-14.993 0-27.26 12.4-27.26 27.555v55.112c0 15.155 12.267 27.555 27.26 27.555m-27.26-192.89c0 15.156 12.267 27.556 27.26 27.556h54.518c14.993 0 27.26-12.4 27.26-27.556v-55.11c0-15.156-12.267-27.556-27.26-27.556h-54.518c-14.993 0-27.26 12.4-27.26 27.555zm27.26-137.778h54.518c14.993 0 27.26-12.4 27.26-27.555v-55.111c0-15.156-12.267-27.556-27.26-27.556h-54.518c-14.993 0-27.26 12.4-27.26 27.556v55.11c0 15.156 12.267 27.556 27.26 27.556" glyph-name="keyboard-box-fill" horiz-adv-x="1024" unicode="" vert-adv-y="1024"/><glyph d="M419.072 716.512a384 384 0 0 1 509.44-509.44C886.102 16.096 715.733-126.667 512-126.667 276.352-126.667 85.333 64.352 85.333 300c0 203.733 142.763 374.101 333.739 416.512m355.925-2.261 35.67-8.918v-42.666l-35.67-8.918a85.33 85.33 0 0 1-62.08-62.08L704 556h-42.667l-8.917 35.67a85.33 85.33 0 0 1-62.08 62.08l-35.67 8.917v42.666l35.67 8.918a85.33 85.33 0 0 1 62.037 62.08l8.96 35.669H704l8.917-35.67a85.33 85.33 0 0 1 62.08-62.08m213.334-213.334L1024 492v-42.667l-35.67-8.917a85.33 85.33 0 0 1-62.08-62.08l-8.917-35.67h-42.666l-8.918 35.67a85.33 85.33 0 0 1-62.08 62.08L768 449.333V492l35.67 8.917a85.33 85.33 0 0 1 62.08 62.08l8.917 35.67h42.666l8.918-35.67a85.33 85.33 0 0 1 62.08-62.08" glyph-name="moon-clear-fill" horiz-adv-x="1024" unicode="" vert-adv-y="1024"/><glyph d="M306.42 790.667c-73.111 0-133.956-17.664-180.571-51.52-20.609-14.23-38.764-32.384-52.994-52.992-33.857-46.614-51.522-107.456-51.522-180.566V94.411c0-178.603 106.479-285.078 285.088-285.078h366.54v981.334zm211.485-516.672L392.29 148.384c-7.36-7.36-16.683-10.795-26.006-10.795s-18.646 3.435-26.006 10.795c-14.23 14.23-14.23 37.781 0 52.01L439.396 300l-99.118 99.605c-14.72 14.23-14.72 37.782 0 52.011s37.782 14.23 52.012 0l125.615-125.61c14.23-14.23 14.23-37.782 0-52.011M746.53 789.133v-978.877c60.354 3.925 111.385 21.094 151.621 50.534 20.609 14.234 38.764 32.384 52.994 52.992 33.857 46.618 51.522 107.456 51.522 180.565v411.181c0 168.79-95.193 273.301-256.137 283.605" glyph-name="side-bar-fill" horiz-adv-x="1024" unicode="" vert-adv-y="1024"/><glyph d="M858.667 726.667c79.529 0 144-64.471 144-144V-4c0-79.529-64.471-144-144-144H165.333c-79.529 0-144 64.471-144 144v586.667c0 79.529 64.471 144 144 144zm58.666-258.176L557.15 210.96c-26.918-19.237-63.38-19.237-90.305.005L106.667 468.469V-4c0-32.4 26.266-58.667 58.666-58.667h693.334c32.4 0 58.666 26.266 58.666 58.667zm-58.666 172.842H165.333c-29.763 0-54.35-22.164-58.155-50.888a48.5 48.5 0 0 0 7.311-4.328L512 301.94l397.51 284.176a50.5 50.5 0 0 0 7.294 4.34c-3.787 28.712-28.374 50.876-58.137 50.876" glyph-name="mail-line" horiz-adv-x="1024" unicode="" vert-adv-y="1024"/><glyph d="M533.512 789.849c53.608.818 106.823.392 160.005.818 1.769-66.468 28.753-126.291 71.685-170.603l-.066.066c46.207-41.596 106.332-68.562 172.614-73.144l.917-.065V382.11c-62.614 1.57-121.494 16.003-174.578 40.81l2.685-1.113c-25.674 12.337-47.386 25.003-68.017 39.14l1.703-1.112c-.393-119.419.393-238.837-.819-357.83-3.373-60.643-23.546-115.95-55.9-162.127l.655 1.014c-54.1-77.43-141.732-128.254-241.384-131.265h-.458c-4.028-.196-8.777-.295-13.558-.295-56.653 0-109.606 15.774-154.733 43.166l1.31-.752C153.442-98.87 96.788-14.37 86.31 83.907l-.131 1.343c-.819 20.454-1.212 40.908-.393 60.936 16.046 156.4 147.168 277.389 306.551 277.389 17.913 0 35.466-1.538 52.528-4.451l-1.834.262c.819-60.511-1.637-121.055-1.637-181.566-13.853 5.007-29.834 7.92-46.502 7.92-61.173 0-113.21-39.076-132.465-93.63l-.294-.982c-4.356-13.974-6.878-30.043-6.878-46.668 0-6.742.426-13.418 1.212-19.963l-.065.785c10.872-66.958 68.311-117.487 137.573-117.487 1.997 0 3.962.032 5.927.13h-.295c47.91 1.44 89.5 27.196 113.013 65.257l.327.589c8.744 12.174 14.737 26.901 16.734 42.904l.033.458c4.094 73.21 2.456 145.993 2.85 219.202.392 164.81-.394 329.227.818 493.612z" glyph-name="tiktok" horiz-adv-x="1024" unicode="" vert-adv-y="1024"/><glyph d="M554.667 478.005V-41.333h-85.334v519.338L240.47 249.141l-60.33 60.331L512 641.333l331.861-331.861-60.33-60.33z" glyph-name="arrow-up-line" horiz-adv-x="1024" unicode="" vert-adv-y="1024"/><glyph d="M511.097 812C229.161 812.226.38 583.936.001 302s227.788-510.84 509.724-511.373c281.937-.53 510.964 227.514 511.649 509.45A510.277 510.277 0 0 1 511.097 812m151.45-539.539L460.991 70.083c-16.048-16.163-42.16-16.255-58.323-.206-16.162 16.048-16.254 42.16-.206 58.323L575.165 300.9 402.463 473.603c-15.98 16.077-15.98 42.04 0 58.117a41.22 41.22 0 0 0 58.53 0l201.553-201.554a41.22 41.22 0 0 0 0-59.354z" glyph-name="arrow-right-circle-fill" horiz-adv-x="1024" unicode="" vert-adv-y="1024"/><glyph d="M509.907-207.813C228.284-207.813 0 20.472 0 302.094 0 583.714 228.285 812 509.907 812c281.62 0 509.906-228.285 509.906-509.906 0-281.622-228.285-509.907-509.906-509.907m-50.991 560.897H254.953V251.103h203.963V47.14h101.981v203.963H764.86v101.981H560.897v203.963H458.916z" glyph-name="add-circle-fill" horiz-adv-x="1023" unicode="" vert-adv-y="1024"/><glyph d="M366.336 86.667H128V172h768V86.667H657.664L796.032-51.701l-60.33-60.331L554.666 69.003V-41.333h-85.334V69.003L288.3-112.032l-60.331 60.33zM213.333 684h597.334a42.667 42.667 0 0 0 42.666-42.667V214.667H170.667v426.666A42.667 42.667 0 0 0 213.333 684" glyph-name="artboard-fill" horiz-adv-x="1024" unicode="" vert-adv-y="1024"/><glyph d="M298.667 513.333V684a42.667 42.667 0 0 0 42.666 42.667H896A42.667 42.667 0 0 0 938.667 684V129.333A42.667 42.667 0 0 0 896 86.667H725.333V-83.701c0-23.723-19.157-42.966-42.965-42.966h-554.07A42.923 42.923 0 0 0 85.334-83.7l.128 554.069c0 23.723 19.158 42.965 42.966 42.965zm85.333 0h298.368c23.723 0 42.965-19.157 42.965-42.965V172h128v469.333H384z" glyph-name="checkbox-multiple-blank-fill" horiz-adv-x="1024" unicode="" vert-adv-y="1024"/><glyph d="M572.33 598.667h281.003A42.667 42.667 0 0 0 896 556v-42.667H128v128A42.667 42.667 0 0 0 170.667 684h316.33zM131.713 428h760.576a42.667 42.667 0 0 0 42.539-46.208L899.243-44.875A42.667 42.667 0 0 0 856.747-84H167.253a42.667 42.667 0 0 0-42.496 39.125L89.173 381.792A42.667 42.667 0 0 0 131.712 428" glyph-name="folder-5-fill" horiz-adv-x="1024" unicode="" vert-adv-y="1024"/><glyph d="M85.333-126.667a341.333 341.333 0 1 0 682.667 0zm341.334 384c-141.44 0-256 114.56-256 256s114.56 256 256 256 256-114.56 256-256-114.56-256-256-256M853.333 86.667H1024V1.333H853.333zM725.333 300H1024v-85.333H725.333zm85.334 213.333H1024V428H810.667z" glyph-name="contacts-fill" horiz-adv-x="1024" unicode="" vert-adv-y="1024"/><glyph d="M767.915 513.333 866.475 684h29.866c23.382 0 42.326-18.987 42.326-42.368V-41.632A42.667 42.667 0 0 0 896.34-84H127.66a42.37 42.37 0 0 0-42.326 42.368v683.264A42.667 42.667 0 0 0 127.66 684h128.256l-98.56-170.667h98.56L354.475 684h157.44l-98.56-170.667h98.56L610.475 684h157.44l-98.56-170.667z" glyph-name="clapperboard-fill" horiz-adv-x="1024" unicode="" vert-adv-y="1024"/><glyph d="M85.333-126.667a341.333 341.333 0 1 0 682.667 0zm341.334 384c-141.44 0-256 114.56-256 256s114.56 256 256 256 256-114.56 256-256-114.56-256-256-256M740.82 162.06a320.21 320.21 0 0 0 239.787-288.726H853.333c0 111.36-42.666 212.736-112.512 288.726m-86.314 97.109A340.48 340.48 0 0 1 768 513.333a339.8 339.8 0 0 1-43.307 166.528A213.33 213.33 0 0 0 896 470.667a213.29 213.29 0 0 0-241.493-211.499" glyph-name="group-fill" horiz-adv-x="1024" unicode="" vert-adv-y="1024"/><glyph d="m240.47 269.835 77.994-78.038 60.416 60.416-78.08 77.952 60.33 60.331 78.038-77.995 60.33 60.331-77.951 78.037 60.33 60.331 77.91-78.08 60.373 60.373-78.037 77.995 120.704 120.661a42.667 42.667 0 0 0 60.33 0L904.15 511.157a42.667 42.667 0 0 0 0-60.33L361.131-92.192a42.667 42.667 0 0 0-60.331 0L119.808 88.8a42.667 42.667 0 0 0 0 60.33zM602.495 28.512l181.035 180.992L896 97.034V-84H715.008zM240.469 390.539 119.765 511.2a42.667 42.667 0 0 0 0 60.373L240.47 692.235a42.667 42.667 0 0 0 60.331 0l120.747-120.662z" glyph-name="pencil-ruler-2-fill" horiz-adv-x="1024" unicode="" vert-adv-y="1024"/><glyph d="M853.333 257.333V-41.333A42.667 42.667 0 0 0 810.667-84H213.333a42.667 42.667 0 0 0-42.666 42.667v298.666zM618.667 726.667A149.333 149.333 0 0 0 753.62 513.29l142.379.042a42.667 42.667 0 0 0 42.667-42.666v-128A42.667 42.667 0 0 0 896 300H128a42.667 42.667 0 0 0-42.667 42.667v128A42.667 42.667 0 0 0 128 513.333l142.379-.042a149.333 149.333 0 0 0 241.664 168.533 148.48 148.48 0 0 0 106.624 44.843m-213.334-85.334a64 64 0 0 1-6.144-127.701l6.144-.299h64v64a64 64 0 0 1-57.856 63.702zm213.334 0-6.144-.298a64 64 0 0 1-57.6-57.558l-.256-6.144v-64h64l6.144.299a64 64 0 0 1 0 127.403z" glyph-name="gift-2-fill" horiz-adv-x="1024" unicode="" vert-adv-y="1024"/><glyph d="m170.667 4.661-57.6 23.254a42.667 42.667 0 0 0-23.552 55.552l81.152 200.874zM378.027-84h-79.36A42.667 42.667 0 0 0 256-41.333v259.328zM256.939 557.365l395.605 159.83a42.667 42.667 0 0 0 55.51-23.552L947.84 100.235a42.667 42.667 0 0 0-23.595-55.552L528.64-115.147a42.667 42.667 0 0 0-55.552 23.595L233.387 501.813a42.667 42.667 0 0 0 23.594 55.51ZM384 428a42.667 42.667 0 1 1 0 85.333A42.667 42.667 0 0 1 384 428" glyph-name="pantone-fill" horiz-adv-x="1024" unicode="" vert-adv-y="1024"/><glyph d="m465.067 722.4 422.357-60.373 60.33-422.4-392.191-392.192a42.667 42.667 0 0 0-60.331 0l-422.4 422.4a42.667 42.667 0 0 0 0 60.33zm120.661-362.07a85.333 85.333 0 1 1 120.661 120.705A85.333 85.333 0 0 1 585.728 360.33" glyph-name="price-tag-3-fill" horiz-adv-x="1024" unicode="" vert-adv-y="1024"/><glyph d="M227.413 672.437a149.333 149.333 0 0 0 190.806-190.89l462.72-462.72L790.4-71.67 327.68 391.008a149.333 149.333 0 0 0-190.805 190.89l95.402-95.445a64 64 0 1 1 90.496 90.496l-95.402 95.531Zm442.326-80.384 135.765 75.435 60.33-60.33L790.4 471.391l-75.435-15.104-90.453-90.496-60.373 60.33 90.496 90.497zM368.043 260.192l90.496-90.539-211.2-211.2a64 64 0 0 0-94.592 85.974l4.138 4.565 211.2 211.2Z" glyph-name="tools-fill" horiz-adv-x="1024" unicode="" vert-adv-y="1024"/><glyph d="M128 684c424.15 0 768-343.85 768-768H768c0 353.45-286.55 640-640 640zm0-298.667C387.2 385.333 597.333 175.2 597.333-84h-128A341.333 341.333 0 0 1 128 257.333zm0-298.666A170.667 170.667 0 0 0 298.667-84H128z" glyph-name="rss-fill" horiz-adv-x="1024" unicode="" vert-adv-y="1024"/><glyph d="M134.827 812A134.656 134.656 0 0 1 0 677.515V-77.26A134.87 134.87 0 0 1 134.827-212h754.346C963.712-212 1024-151.413 1024-77.173v754.346C1024 751.712 963.413 812 889.173 812zm335.786-149.077h103.638a44.373 44.373 0 0 0 44.416-44.416v-35.072a5.973 5.973 0 0 0-7.424-5.974 327.637 326.272 0 0 1-87.168 11.776 322.73 321.408 0 0 1-90.155-12.672c-4.053-.896-7.765 1.92-7.765 5.974v35.968a44.544 44.373 0 0 0 44.416 44.373zm-185.6-94.72a44.373 44.16 0 0 0 32-13.056l17.664-17.75c2.475-2.773 2.176-7.125-.938-8.96a321.877 320.555 0 0 1-40.15-34.176 341.333 339.925 0 0 1-33.834-39.765c-2.475-2.773-6.528-3.413-9.344-.683l-17.408 17.451a44.501 44.373 0 0 0 0 62.805l21.162 21.078a44.373 44.16 0 0 0 30.848 13.013zm238.806-14.934a289.024 289.024 0 0 0 289.578-289.194A289.45 289.45 0 0 0 523.82-25.333c-159.915 0-289.664 129.194-289.664 289.152a289.536 289.536 0 0 0 289.706 289.45zm0-85.674a204.075 204.075 0 0 1-204.075-203.776A204.075 204.075 0 0 1 523.819 60.085 203.82 203.82 0 0 1 727.936 263.82a204.03 204.03 0 0 1-204.117 203.776m6.186-35.755a167.893 167.21 0 0 0 139.99-84.821c1.536-3.115.64-6.827-2.432-8.363L532.48 268.768c-3.968-2.219-8.747.981-8.747 5.333v151.766h.086c0 3.413 3.072 5.93 6.186 5.93z" glyph-name="algolia" horiz-adv-x="1024" unicode="" vert-adv-y="1024"/><glyph d="M725.333 684H896a42.667 42.667 0 0 0 42.667-42.667V-41.333A42.667 42.667 0 0 0 896-84H128a42.667 42.667 0 0 0-42.667 42.667v682.666A42.667 42.667 0 0 0 128 684h170.667v85.333H384V684h256v85.333h85.333zM170.667 428V1.333h682.666V428zM256 342.667h85.333v-85.334H256zM256 172h85.333V86.667H256zm170.667 170.667H768v-85.334H426.667zm0-170.667H640V86.667H426.667z" glyph-name="calendar-todo-fill" horiz-adv-x="1024" unicode="" vert-adv-y="1024"/><glyph d="M233.088 622.859A425 425 0 0 0 512 726.667c235.648 0 426.667-191.019 426.667-426.667 0-91.136-28.587-175.616-77.227-244.907L725.333 300h128a341.333 341.333 0 0 1-577.706 246.272zM790.912-22.86A425 425 0 0 0 512-126.667C276.352-126.667 85.333 64.352 85.333 300c0 91.136 28.587 175.616 77.227 244.907L298.667 300h-128A341.333 341.333 0 0 1 748.373 53.728z" glyph-name="refresh-line" horiz-adv-x="1024" unicode="" vert-adv-y="1024"/><glyph d="M716.8 735.2a230.4 230.4 0 0 0 230.4-230.4V95.2a230.4 230.4 0 0 0-230.4-230.4H307.2A230.4 230.4 0 0 0 76.8 95.2v409.6a230.4 230.4 0 0 0 230.4 230.4zm0 76.8H307.2A307.2 307.2 0 0 1 0 504.8V95.2A307.2 307.2 0 0 1 307.2-212h409.6A307.2 307.2 0 0 1 1024 95.2v409.6A307.2 307.2 0 0 1 716.8 812M319.744 502.24l-19.2-22.272h202.752c0-23.808 0-45.824-1.792-66.304h34.56v-39.936h-37.632c0-9.472-2.304-21.248-4.864-35.584h23.296v-32.512H486.4l-3.072-10.496 17.152-13.056a763 763 0 0 0-96-39.936l118.784 4.352c20.736 10.752 46.592 25.6 76.8 41.728l44.8-29.44a984.3 984.3 0 0 0-222.464-92.16q102.4 4.096 220.672 12.288c-17.152 13.056-30.208 22.528-39.424 28.416l44.288 28.16a1037 1037 0 0 0 136.448-97.792l-51.2-34.304c-11.52 11.008-25.6 24.064-44.288 39.424l-146.688-8.704V66.016c0-34.56-20.224-51.2-60.928-51.2h-54.016l-11.008 51.2a479 479 0 0 1 49.664-3.072 15.616 15.616 0 0 1 17.92 17.152v51.2c-62.464-3.328-128-5.888-200.96-7.936l-13.568 51.2c17.152-1.28 34.304-1.792 51.2-1.792a784.6 784.6 0 0 1 128 39.936l-131.584-5.12-9.728 45.824a146.2 146.2 0 0 1 47.872 5.376 799 799 0 0 1 75.52 33.792l3.84 13.056H259.584c4.864 30.208 8.192 52.992 10.24 68.096h-37.376v39.936h42.496c2.304 20.48 4.096 35.84 4.864 46.08l-19.712-17.152-33.28 39.168a330 330 0 0 1 86.784 102.4l52.736-11.776-15.36-27.136H528.64V502.24ZM427.776 82.4a727.8 727.8 0 0 0-167.68-64L236.8 67.552A623 623 0 0 1 394.752 120.8Zm-106.24 296.96-6.656-41.216h87.04a391 391 0 0 1-61.952 21.504l12.8 19.712Zm41.728 68.608H330.24l-4.352-40.96h76.8A338 338 0 0 1 349.184 428Zm44.288-109.824h35.584l6.912 41.216h-86.784a512 512 0 0 0 57.856-20.48Zm44.8 68.864 1.792 40.96h-83.456a358.4 358.4 0 0 0 55.808-22.016l-12.288-18.944Zm119.296 33.024q-9.216-11.264-27.648-30.72l-33.792 40.704a412.2 412.2 0 0 1 82.176 135.68l54.272-12.288-19.2-43.008h157.952v-51.2h-34.304a284.9 284.9 0 0 0-51.2-107.52 469.3 469.3 0 0 1 98.304-43.776l-28.928-51.2a460.8 460.8 0 0 0-108.288 55.808 294.7 294.7 0 0 0-111.104-52.736l-28.928 45.568a270.3 270.3 0 0 1 99.072 43.008 237.6 237.6 0 0 0-48.384 71.68M614.4 123.104A1068 1068 0 0 0 781.824 69.6l-32-51.2a926.5 926.5 0 0 1-168.448 57.088Zm-9.216 358.4a180.74 180.74 0 0 1 51.2-76.8 244.7 244.7 0 0 1 41.728 76.8Z" glyph-name="panben" horiz-adv-x="1024" unicode="" vert-adv-y="1024"/><glyph d="M161.408 691.424 512 769.334l350.592-77.91A42.67 42.67 0 0 0 896 649.781V223.67A256 256 0 0 0 781.995 10.677L512-169.333 242.005 10.677A256 256 0 0 0 128 223.627V649.78a42.67 42.67 0 0 0 33.408 41.643M512 342.667A106.667 106.667 0 1 1 512 556a106.667 106.667 0 0 1 0-213.333M321.152 129.333h381.696a192 192 0 0 1-381.696 0" glyph-name="shield-user-fill" horiz-adv-x="1024" unicode="" vert-adv-y="1024"/><glyph d="M512 726.667c235.648 0 426.667-191.019 426.667-426.667S747.648-126.667 512-126.667 85.333 64.352 85.333 300 276.352 726.667 512 726.667m-128-256c-94.208 0-170.667-76.459-170.667-170.667a170.71 170.71 0 0 1 284.544-127.104l6.784 6.443-60.33 60.33a85.333 85.333 0 1 0-5.334 125.568l5.376-4.949 60.331 60.33A170.16 170.16 0 0 1 384 470.668m298.667 0C588.459 470.667 512 394.208 512 300a170.71 170.71 0 0 1 284.544-127.104l6.784 6.443-60.33 60.33a85.333 85.333 0 1 0-5.334 125.568l5.376-4.949 60.33 60.33a170.16 170.16 0 0 1-120.703 50.049" glyph-name="creative-commons-fill" horiz-adv-x="1024" unicode="" vert-adv-y="1024"/><glyph d="M426.667 556v-85.333H213.333V1.333h469.334v213.334H768v-256A42.667 42.667 0 0 0 725.333-84H170.667A42.667 42.667 0 0 0 128-41.333v554.666A42.667 42.667 0 0 0 170.667 556zM896 684V300L734.123 461.835l-255.958-256-60.33 60.33 255.957 256L512 684z" glyph-name="external-link-fill" horiz-adv-x="1024" unicode="" vert-adv-y="1024"/><glyph d="m783.53 149.13-60.33 60.417 60.33 60.33a213.333 213.333 0 1 1-301.695 301.696L421.504 511.2l-60.373 60.33 60.416 60.331a298.667 298.667 0 0 0 422.4-422.4l-60.374-60.33ZM662.87 28.47l-60.374-60.331a298.667 298.667 0 0 0-422.4 422.4l60.373 60.33 60.331-60.416-60.33-60.33A213.333 213.333 0 1 1 542.164 28.427l60.331 60.33 60.373-60.33ZM632.66 481.034l60.374-60.374-301.696-301.653-60.374 60.33 301.696 301.654Z" glyph-name="link" horiz-adv-x="1024" unicode="" vert-adv-y="1024"/><glyph d="m835.516 102.163 154.351 225.894H880.709c-14.541 221.047-198.11 396.151-422.844 396.151-234.291 0-423.731-189.918-423.731-424.277 0-234.155 189.918-424.141 424.209-424.141 105.062 0 200.977 38.434 275.115 101.786l-56.73 73.045C618.36-.442 542.038-31.777 458.343-31.777c-183.296 0-331.844 148.617-331.844 331.708 0 183.364 148.617 331.913 331.844 331.913 173.739 0 315.665-133.734 329.933-303.787h-107.11l154.351-225.894Z" glyph-name="restart-line" horiz-adv-x="1024" unicode="" vert-adv-y="1024"/><glyph d="M333.995 342.667h519.338v-85.334H333.995L562.859 28.47l-60.331-60.33L170.667 300l331.861 331.861 60.33-60.33Z" glyph-name="arrow-left-line" horiz-adv-x="1024" unicode="" vert-adv-y="1024"/><glyph d="M690.005 342.667 461.141 571.53l60.331 60.33L853.333 300 521.472-31.861l-60.33 60.33 228.863 228.864H170.667v85.334Z" glyph-name="arrow-right-line" horiz-adv-x="1024" unicode="" vert-adv-y="1024"/><glyph d="m313.301 541.365 211.2-211.2a42.667 42.667 0 0 0 0-60.33l-211.2-211.2a42.667 42.667 0 0 0-60.33 60.33L434.005 300 252.971 481.035a42.667 42.667 0 1 0 60.33 60.33m256 0 211.2-211.2a42.667 42.667 0 0 0 0-60.33l-211.2-211.2a42.667 42.667 0 0 0-60.33 60.33L690.005 300 508.971 481.035a42.667 42.667 0 0 0 60.33 60.33" glyph-name="youxiangshuangjiantou" horiz-adv-x="1024" unicode="" vert-adv-y="1024"/><glyph d="M682.667 726.667 896 513.333V-84.34a42.37 42.37 0 0 0-42.368-42.326H170.368A42.667 42.667 0 0 0 128-84.34V684.34c0 23.382 18.987 42.326 42.368 42.326zm-85.334-256V257.803L512 342.667l-84.907-85.334-.426 213.334h-85.334V129.333h85.334L512 214.667l85.333-85.334h85.334v341.334z" glyph-name="file-word-fill" horiz-adv-x="1024" unicode="" vert-adv-y="1024"/><glyph d="M232.832 36.107C143.275 100.448 85.333 197.6 85.333 303.925 85.333 499.552 276.267 658.4 512 658.4s426.667-158.848 426.667-354.475c0-195.584-190.934-354.432-426.667-354.432a484.7 484.7 0 0 0-139.605 19.67c-3.926 1.28-9.216 1.28-13.142 1.28-7.893 0-15.786-2.56-22.4-6.528l-93.482-53.803a18.8 18.8 0 0 0-7.894-2.645 14.59 14.59 0 0 0-14.506 14.421c0 3.968 1.28 6.57 2.645 10.539 1.28 1.28 13.141 44.629 19.755 70.869 0 2.645 1.28 6.57 1.28 9.216 0 10.496-3.926 18.347-11.819 23.595m136.96 327.424c30.592 0 54.827 24.234 54.827 54.826 0 30.635-24.235 54.87-54.827 54.87-30.635 0-54.827-24.235-54.827-54.87 0-30.592 24.192-54.826 54.827-54.826m284.416 0c30.635 0 54.827 24.234 54.827 54.826 0 30.635-24.192 54.87-54.827 54.87-30.592 0-54.827-24.235-54.827-54.87 0-30.592 24.235-54.826 54.827-54.826" glyph-name="wechat-2-fill" horiz-adv-x="1024" unicode="" vert-adv-y="1024"/><glyph d="M512-169.333a320 320 0 0 0-219.221 553.088C350.037 437.643 490.667 534.667 469.333 748c256-170.667 384-341.333 128-597.333 42.667 0 106.667 0 213.334 105.386C822.187 223.072 832 187.616 832 150.667a320 320 0 0 0-320-320" glyph-name="fire-fill" horiz-adv-x="1024" unicode="" vert-adv-y="1024"/><glyph d="M783.53 71.136 512-200.394 240.47 71.135a384 384 0 1 0 543.06 0M512 172a170.667 170.667 0 1 1 0 341.333A170.667 170.667 0 0 1 512 172m0 85.333A85.333 85.333 0 1 0 512 428a85.333 85.333 0 0 0 0-170.667" glyph-name="map-pin-fill" horiz-adv-x="1024" unicode="" vert-adv-y="1024"/><glyph d="M512-126.667C276.352-126.667 85.333 64.352 85.333 300S276.352 726.667 512 726.667 938.667 535.648 938.667 300 747.648-126.667 512-126.667M554.667 300v213.333h-85.334V214.667h256V300z" glyph-name="time-fill" horiz-adv-x="1024" unicode="" vert-adv-y="1024"/><glyph d="m751.701 557.365 61.995 61.995 60.33-60.33-61.994-61.995a384 384 0 1 0-60.33 60.33m-282.368-86.698v-256h85.334v256zm-128 298.666h341.334V684H341.333z" glyph-name="timer-fill" horiz-adv-x="1024" unicode="" vert-adv-y="1024"/><glyph d="M128 641.333h768V556H128zm0-298.666h768v-85.334H128zM128 44h768v-85.333H128z" glyph-name="menu-fill" horiz-adv-x="1024" unicode="" vert-adv-y="1024"/><glyph d="m85.333 598.667 298.667 128 256-128 268.928 115.242a21.333 21.333 0 0 0 29.739-19.626V1.333L640-126.667l-256 128-268.928-115.242a21.333 21.333 0 0 0-29.739 19.626zM682.667-15.52l170.666 73.13V597.26l-170.666-73.131zm-85.334 5.59v534.527l-170.666 85.334V75.403zm-256 85.802V615.52l-170.666-73.13V2.74z" glyph-name="map-2-line" horiz-adv-x="1024" unicode="" vert-adv-y="1024"/><glyph d="M443.307 640.693a42.667 42.667 0 0 0 34.56-49.45l-21.248-120.576H625.92l23.893 135.381a42.667 42.667 0 1 0 84.054-14.805l-21.248-120.576h98.048a42.667 42.667 0 0 0 0-85.334h-113.11l-30.08-170.666H768a42.667 42.667 0 0 0 0-85.334H652.416L630.144 2.997a42.667 42.667 0 0 0-84.053 14.806l19.669 111.53H396.416L374.144 2.997a42.667 42.667 0 0 0-84.053 14.806l19.669 111.53h-96.427a42.667 42.667 0 0 0 0 85.334H324.78L354.9 385.333H256a42.667 42.667 0 1 0 0 85.334h113.92l23.893 135.381a42.667 42.667 0 0 0 49.494 34.645m137.429-426.026 30.123 170.666H441.515l-30.08-170.666z" glyph-name="jingxiao" horiz-adv-x="1024" unicode="" vert-adv-y="1024"/><glyph d="M747.733 326.539c53.888-16.726 113.878-57.003 113.878-128.171 0-117.888-169.814-266.197-425.131-266.197-194.773 0-393.813 94.421-393.813 249.685 0 81.152 51.37 175.019 139.818 263.552C300.8 563.595 438.656 617.483 490.496 565.558c22.912-22.913 25.088-62.465 10.41-109.74-7.594-23.765 22.4-10.666 22.4-10.666 95.574 40.021 179.03 42.41 209.451-1.152 16.214-23.168 14.635-55.723-.341-93.44-6.955-17.365 2.048-20.096 15.36-24.021ZM437.035-12.192C592.384 3.253 710.144 98.4 700.16 200.416c-10.112 102.016-144.299 172.288-299.648 156.885-155.307-15.36-273.195-110.506-263.125-212.48C147.499 42.677 281.685-27.509 437.035-12.192m-174.208 208.17c32.17 65.153 115.712 101.974 189.696 82.774 76.501-19.755 115.498-91.904 84.309-162.133-31.744-71.766-122.965-109.995-200.32-85.035-74.752 24.15-106.368 97.877-73.685 164.395M324.523 85.6c24.234-10.965 56.533-.555 71.509 23.467 14.763 24.234 6.955 51.925-17.365 62.25-24.022 10.112-55.083-.341-69.974-23.594-15.104-23.339-8.064-51.286 15.83-62.123m94.122 77.141c9.344-3.925 21.376.512 26.795 9.856 5.248 9.387 1.877 19.883-7.595 23.382-9.216 3.584-20.736-.768-26.154-9.899-5.248-9.13-2.304-19.541 6.954-23.339m429.27 243.926a30.933 30.933 0 1 0-58.795 19.242 58.88 58.88 0 0 1-12.288 57.899 59.52 59.52 0 0 1-56.363 18.133 30.848 30.848 0 1 0-12.928 60.416 121.003 121.003 0 0 0 140.374-155.69M680.832 687.2a248.79 248.79 0 0 0 236.501-76.587 249 249 0 0 0 52.054-243.37 35.755 35.755 0 0 0-45.227-23.04 36.01 36.01 0 0 0-23.125 45.312A176.768 176.768 0 0 1 695.936 616.8a36.053 36.053 0 0 0-15.104 70.4" glyph-name="weibo-fill" horiz-adv-x="1024" unicode="" vert-adv-y="1024"/><glyph d="M298.667 556v128a42.667 42.667 0 0 0 42.666 42.667h512A42.667 42.667 0 0 0 896 684V86.667A42.667 42.667 0 0 0 853.333 44h-128V-84c0-23.552-19.2-42.667-42.965-42.667H170.965A42.71 42.71 0 0 0 128-84l.128 597.333c0 23.552 19.2 42.667 42.965 42.667zM384 556h341.333V129.333h85.334v512H384z" glyph-name="file-copy-fill" horiz-adv-x="1024" unicode="" vert-adv-y="1024"/><glyph d="M398.08 321.333h92.587a192 192 0 0 0 192-192h-298.71L384 86.667h341.333v42.666a238 238 0 0 1-37.802 128h123.136a213.33 213.33 0 0 0 192.682-121.642C902.443 2.528 739.072-84 554.667-84 436.864-84 337.067-58.827 256-14.667v396.971a297.26 297.26 0 0 0 142.08-60.97M170.667 428a42.667 42.667 0 0 0 42.368-37.675l.298-4.992v-384a42.667 42.667 0 0 0-42.666-42.666H85.333A42.667 42.667 0 0 0 42.667 1.333v384A42.667 42.667 0 0 0 85.333 428zm411.562 231.467 15.104-15.147 15.104 15.104a106.667 106.667 0 1 0 150.827-150.87l-165.93-165.887L431.36 508.64a106.667 106.667 0 1 0 150.87 150.827" glyph-name="hand-heart-fill" horiz-adv-x="1024" unicode="" vert-adv-y="1024"/><glyph d="M896 684v-85.333C896 433.717 762.283 300 597.333 300h-42.666v-42.667H768V-41.333c0-47.147-38.187-85.334-85.333-85.334H341.333C294.187-126.667 256-88.48 256-41.333v298.666h213.333v128C469.333 550.283 603.051 684 768 684zm-661.333 42.667c107.904 0 203.306-53.376 261.29-135.211-43.52-57.216-69.29-128.683-69.29-206.123v-42.666h-21.334c-176.725 0-320 143.274-320 320v64z" glyph-name="plant-fill" horiz-adv-x="1024" unicode="" vert-adv-y="1024"/><glyph d="M682.667 86.667v42.666h-128v128h128V172H768V86.667h-42.667V1.333H640V-84h-85.333V44H640v42.667zM896-84H725.333V1.333h85.334v85.334H896zM128 684h341.333V342.667H128zm426.667 0H896V342.667H554.667zM128 257.333h341.333V-84H128zm640 0h128V172H768zM256 556v-85.333h85.333V556zm0-426.667V44h85.333v85.333zM682.667 556v-85.333H768V556z" glyph-name="qr-code-fill" horiz-adv-x="1024" unicode="" vert-adv-y="1024"/><glyph d="m461.995 300 211.2-211.2-60.331-60.33L341.334 300l271.53 271.53 60.33-60.33Z" glyph-name="arrow-left-s-line" horiz-adv-x="1024" unicode="" vert-adv-y="1024"/><glyph d="m512 249.995 211.2 211.2 60.33-60.331L512 129.334l-271.53 271.53 60.33 60.33Z" glyph-name="arrow-down-s-line" horiz-adv-x="1024" unicode="" vert-adv-y="1024"/><glyph d="m562.005 300-211.2 211.2 60.331 60.33L682.666 300 411.137 28.47l-60.33 60.33Z" glyph-name="arrow-right-s-line" horiz-adv-x="1024" unicode="" vert-adv-y="1024"/><glyph d="m512 350.005-211.2-211.2-60.33 60.331L512 470.666l271.53-271.53-60.33-60.33Z" glyph-name="arrow-up-s-line" horiz-adv-x="1024" unicode="" vert-adv-y="1024"/><glyph d="m621.254-65.254 320 320c24.994 24.992 24.994 65.516 0 90.51l-320 320c-24.994 24.992-65.516 24.992-90.51 0-24.994-24.994-24.994-65.516 0-90.51L741.49 364H128c-35.346 0-64-28.654-64-64s28.654-64 64-64h613.49L530.744 25.254C518.248 12.758 512-3.622 512-20s6.248-32.758 18.744-45.254c24.994-24.994 65.516-24.994 90.51 0" glyph-name="right" horiz-adv-x="1024" unicode="" vert-adv-y="1024"/><glyph d="M853.333-126.667h-576A149.333 149.333 0 0 0 128 22.667v576a128 128 0 0 0 128 128h597.333A42.667 42.667 0 0 0 896 684V-84a42.667 42.667 0 0 0-42.667-42.667m-42.666 85.334v128H277.333a64 64 0 0 1 0-128zm-384 682.666V300L576 385.333 725.333 300v341.333z" glyph-name="book-mark-fill" horiz-adv-x="1024" unicode="" vert-adv-y="1024"/><glyph d="m512 790.667 180.31-263.808 306.645-89.984-195.2-253.014 9.173-319.402L512-28.107 211.072-135.54l9.173 319.402-195.2 253.014 306.646 89.984zM426.667 300h-85.334a170.667 170.667 0 0 1 341.12-8.533l.214 8.533h-85.334a85.333 85.333 0 0 0-170.453-6.4z" glyph-name="star-smile-fill" horiz-adv-x="1024" unicode="" vert-adv-y="1024"/><glyph d="M256 641.333V470.667h512v170.666h85.632c23.381 0 42.368-18.986 42.368-42.368V-84.299a42.41 42.41 0 0 0-42.368-42.368H170.368A42.41 42.41 0 0 0 128-84.299v683.264c0 23.382 18.987 42.368 42.368 42.368zm85.333 85.334h341.334V556H341.333z" glyph-name="clipboard-fill" horiz-adv-x="1024" unicode="" vert-adv-y="1024"/><glyph d="M275.413 1.333 85.333-148v789.333A42.667 42.667 0 0 0 128 684h768a42.667 42.667 0 0 0 42.667-42.667V44A42.667 42.667 0 0 0 896 1.333zm193.92 384h-128V300h128V172h85.334v128h128v85.333h-128v128h-85.334z" glyph-name="chat-new-fill" horiz-adv-x="1024" unicode="" vert-adv-y="1024"/><glyph d="m213.333 338.4 85.334 85.333 234.666-234.666L682.667 338.4l128-128v388.267H213.333zM170.667 684h682.666A42.667 42.667 0 0 0 896 641.333V-41.333A42.667 42.667 0 0 0 853.333-84H170.667A42.667 42.667 0 0 0 128-41.333v682.666A42.667 42.667 0 0 0 170.667 684m490.666-298.667a64 64 0 1 0 0 128 64 64 0 0 0 0-128" glyph-name="image-2-fill" horiz-adv-x="1024" unicode="" vert-adv-y="1024"/><glyph d="M896 172V44h128v-85.333H896v-128h-85.333v128h-128V44h128v128zm.341 512c23.382 0 42.326-18.987 42.326-42.368v-398.89a255.6 255.6 0 0 1-85.334 14.591v341.334H170.667l.042-597.334 396.459 396.502a42.624 42.624 0 0 0 56.32 3.584l3.968-3.627 151.296-151.467A256.13 256.13 0 0 1 611.925-84.043L127.66-84a42.37 42.37 0 0 0-42.326 42.368v683.264A42.667 42.667 0 0 0 127.66 684zM341.333 513.333a85.333 85.333 0 1 0 0-170.666 85.333 85.333 0 0 0 0 170.666" glyph-name="image-add-fill" horiz-adv-x="1024" unicode="" vert-adv-y="1024"/><glyph d="M252.885 278.795c88.022 18.901 76.032 124.117 73.387 147.114-4.31 35.414-45.995 97.366-102.613 92.459-71.254-6.4-81.622-109.27-81.622-109.27-9.642-47.573 23.04-149.205 110.848-130.303m93.44-182.955c-2.56-7.381-8.32-26.283-3.328-42.752 9.814-36.95 41.899-38.613 41.899-38.613h46.08v112.64h-49.365c-22.187-6.571-32.854-23.851-35.286-31.275m69.888 359.339c48.64 0 87.894 55.978 87.894 125.141 0 69.12-39.254 125.013-87.894 125.013-48.512 0-87.893-55.893-87.893-125.013 0-69.163 39.381-125.141 87.893-125.141m209.408-8.235c64.939-8.448 106.71 60.885 115.03 113.45 8.49 52.48-33.451 113.409-79.446 123.905-46.08 10.581-103.637-63.275-108.885-111.36-6.272-58.88 8.405-117.675 73.301-125.995m0-147.115c-79.573 123.947-192.554 73.515-230.4 10.454-37.589-63.019-96.256-102.827-104.576-113.408-8.448-10.411-121.429-71.382-96.341-182.784C219.349-97.227 307.456-95.136 307.456-95.136s64.896-6.4 140.203 10.496c75.349 16.683 140.202-4.181 140.202-4.181s176-58.88 224.128 54.528c48.128 113.493-27.178 172.288-27.178 172.288s-100.523 77.781-159.232 161.834ZM369.28-30.837c-49.408 9.856-69.077 43.562-71.552 49.322-2.432 5.846-16.47 32.939-9.045 79.062 21.333 69.077 82.218 74.026 82.218 74.026h60.928v74.88l51.84-.853V-30.837H369.323Zm195.84.81c-51.03 13.142-53.376 49.408-53.376 49.408V164.96l53.376.853V34.997c3.285-13.994 20.608-16.512 20.608-16.512h54.23V164.96h56.831V-30.027zm318.037 388.694c0 25.173-20.906 100.864-98.346 100.864-77.611 0-87.979-71.467-87.979-121.984 0-48.214 4.053-115.499 100.437-113.366 96.427 2.134 85.888 109.227 85.888 134.486" glyph-name="baidu-fill" horiz-adv-x="1024" unicode="" vert-adv-y="1024"/><glyph d="M128 684h768a42.667 42.667 0 0 0 42.667-42.667V-41.333A42.667 42.667 0 0 0 896-84H128a42.667 42.667 0 0 0-42.667 42.667v682.666A42.667 42.667 0 0 0 128 684m725.333-298.667H170.667v-384h682.666zM213.333 556v-85.333h85.334V556zM384 556v-85.333h85.333V556z" glyph-name="window-fill" horiz-adv-x="1024" unicode="" vert-adv-y="1024"/><glyph d="m341.333 328.459 436.182 290.773a21.333 21.333 0 0 0 33.152-17.75V-1.482a21.333 21.333 0 0 0-33.152-17.749L341.333 271.541V1.333a42.667 42.667 0 0 0-85.333 0v597.334a42.667 42.667 0 1 0 85.333 0z" glyph-name="skip-back-fill" horiz-adv-x="1024" unicode="" vert-adv-y="1024"/><glyph d="M938.667 44v-85.333H85.333V44zM85.333 662.667l341.334-213.334L85.333 236zm853.334-320v-85.334H512v85.334zm-768 166.058V389.941l94.976 59.392zm768 132.608V556H512v85.333z" glyph-name="play-list-2-line" horiz-adv-x="1024" unicode="" vert-adv-y="1024"/><glyph d="M682.667 271.541 246.485-19.232a21.333 21.333 0 0 0-33.152 17.75v602.965a21.333 21.333 0 0 0 33.152 17.749l436.182-290.773v270.208a42.667 42.667 0 0 0 85.333 0V1.333a42.667 42.667 0 0 0-85.333 0z" glyph-name="skip-forward-fill" horiz-adv-x="1024" unicode="" vert-adv-y="1024"/><glyph d="M298.667-83.19a277.333 277.333 0 0 0-125.27 512 341.376 341.376 0 0 0 677.206 0 277.333 277.333 0 0 0-125.27-512V-84H298.667zm256 383.19v170.667h-85.334V300h-128L512 86.667 682.667 300z" glyph-name="download-cloud-fill" horiz-adv-x="1024" unicode="" vert-adv-y="1024"/><glyph d="M826.71 282.25 374.484-19.231a21.333 21.333 0 0 0-33.152 17.75v602.965a21.333 21.333 0 0 0 33.152 17.749L826.71 317.749a21.333 21.333 0 0 0 0-35.498" glyph-name="play-fill" horiz-adv-x="1024" unicode="" vert-adv-y="1024"/><glyph d="M256 598.667h85.333V1.333H256zm426.667 0H768V1.333h-85.333z" glyph-name="pause-fill" horiz-adv-x="1024" unicode="" vert-adv-y="1024"/><glyph d="M911.28 672.067 523.942 284.73c-30.556-30.548-80.089-30.548-110.645 0L25.959 672.067c-29.654 30.704-29.23 79.509.954 109.693 30.183 30.183 78.988 30.607 109.692.953L468.62 450.698l332.014 332.015A78.25 78.25 0 1 0 911.28 672.067m0-469.5L523.942-184.77c-30.556-30.547-80.089-30.547-110.645 0L25.959 202.567c-29.654 30.704-29.23 79.509.954 109.693 30.183 30.183 78.988 30.607 109.692.953L468.62-18.802l332.014 332.015c30.704 29.654 79.509 29.23 109.693-.953 30.183-30.184 30.607-78.989.953-109.693" glyph-name="xiaxiangshuangjiantou" horiz-adv-x="939" unicode="" vert-adv-y="1024"/><glyph d="M608 716c0 53-43 96-96 96s-96-43-96-96 43-96 96-96 96 43 96 96m0-832c0 53-43 96-96 96s-96-43-96-96 43-96 96-96 96 43 96 96M96 204c53 0 96 43 96 96s-43 96-96 96-96-43-96-96 43-96 96-96m928 96c0 53-43 96-96 96s-96-43-96-96 43-96 96-96 96 43 96 96M285.8-62c37.4 37.4 37.4 98.2 0 135.8s-98.2 37.4-135.8 0-37.4-98.2 0-135.8 98.2-37.4 135.8 0m0 588.4c37.4 37.4 37.4 98.2 0 135.8s-98.4 37.4-135.8-.2-37.4-98.2 0-135.8 98.2-37.4 135.8 0ZM738.2-62c37.4-37.4 98.2-37.4 135.8 0s37.4 98.2 0 135.8-98.2 37.4-135.8 0-37.4-98.2 0-135.8" glyph-name="spinner-solid" horiz-adv-x="1024" unicode="" vert-adv-y="1024"/><glyph d="m168.832 452.96 320.981 196.053a42.67 42.67 0 0 0 44.459 0l320.939-196.096A85.33 85.33 0 0 0 896 380.128V1.333A85.333 85.333 0 0 0 810.667-84H213.333A85.333 85.333 0 0 0 128 1.333v378.795a85.33 85.33 0 0 0 40.832 72.832m257.835-195.627A42.667 42.667 0 0 1 384 214.667v-128A42.667 42.667 0 0 1 426.667 44h170.666A42.667 42.667 0 0 1 640 86.667v128a42.667 42.667 0 0 1-42.667 42.666z" glyph-name="Home" horiz-adv-x="1024" unicode="" vert-adv-y="1024"/><glyph d="M710.965 604.72c25.589 17.169 61.31 21.565 85.769 9.264 30.912-15.562 46.466-39.103 46.466-66.966 0-13.982-5.397-32.854-17.124-51.825-11.605-18.773-27.183-34.014-43.056-42.684-19.174-10.477-29.175-32.441-24.546-53.906s22.778-37.274 44.54-38.8c18.229-1.284 46.197-8.152 68.105-22.899 19.921-13.462 33.414-31.914 33.414-61.606 0-28.975-22.742-50.984-56.524-65.929l39.45-90.458c42.442 18.774 115.208 65.287 115.208 156.387 0 69.116-35.598 115.851-76.986 143.715a215.5 215.5 0 0 1-23.135 13.537 231 231 0 0 1 6.845 10.448c18.94 30.63 31.942 67.362 31.942 104.02 0 73.413-44.454 127.016-100.733 155.349-62.708 31.569-136.062 16.797-184.074-15.439-25.81-17.316-45.313-41.622-57.457-59.086a320 320 0 0 1-19.97-32.903l-.368-.692-.123-.247-.05-.098-.024-.05s0-.05 43.866-22.133l43.866-22.108v-.05l-.025-.049-.024-.024.049.123a136 136 0 0 0 3.042 5.533 217 217 0 0 0 10.157 16.032c9.322 13.413 20.485 26.184 31.476 33.545zm-223.498 65.806c-52.453 0-85.082-28.234-110.278-57.234-9.316-10.72-22.775-16.87-36.922-16.87h-73.6v98.806h52.207c33.88 34.533 87.56 74.105 168.593 74.105 51.544 0 98.378-25.195 128.407-45.352a401.7 401.7 0 0 0 48.969-38.856c1.3-1.235 2.355-2.223 3.09-2.964l.933-.914.294-.296.123-.1.05-.073-34.666-34.953-34.69-34.953-.27.271a248 248 0 0 1-9.617 8.745 302 302 0 0 1-28.63 21.885c-25.172 16.872-51.938 28.753-73.993 28.753m-367.24-238.594c-32.498 53.366-33.812 120.25-3.434 174.869s87.701 88.44 149.874 88.427v-98.807c-34.885.04-65.005-24.585-72.13-58.968-7.126-34.384 10.7-69.081 42.69-83.092 20.707-9.106 32.56-31.274 28.71-53.692s-22.41-39.29-44.951-40.866c-18.229-1.284-46.197-8.152-68.105-22.899-19.921-13.462-33.414-31.914-33.414-61.606 0-28.975 22.742-50.984 56.525-65.929l-39.45-90.433C94.099 137.685 21.333 184.198 21.333 275.298c0 69.116 35.598 115.851 76.986 143.715 7.115 4.817 14.475 9.115 21.908 12.92m195.506-255.44c-54.197 0-98.133-44.238-98.133-98.808s43.936-98.807 98.133-98.807v-98.807c-108.395 0-196.266 88.475-196.266 197.614s87.871 197.614 196.266 197.614zM364.8-21.124c-.003-17.652 9.349-33.964 24.531-42.79a48.78 48.78 0 0 1 49.071 0c15.183 8.826 24.534 25.138 24.531 42.79h98.134c0-81.854-65.904-148.21-147.2-148.21-81.297 0-147.2 66.356-147.2 148.21zm343.467 197.614c54.197 0 98.133-44.237 98.133-98.807s-43.936-98.807-98.133-98.807v-98.807c108.395 0 196.266 88.475 196.266 197.614s-87.871 197.614-196.266 197.614zM659.2-21.123c.003-17.652-9.349-33.964-24.531-42.79a48.78 48.78 0 0 0-49.071 0c-15.183 8.826-24.534 25.138-24.531 42.79h-98.134c0-81.854 65.904-148.21 147.2-148.21 81.297 0 147.2 66.356 147.2 148.21zM462.933-45.825v543.439h98.134V-45.825Zm171.734 395.229c-40.649 0-73.6-33.178-73.6-74.106h-98.134c0 45.86 18.094 89.84 50.3 122.268s75.887 50.645 121.434 50.645zm-245.334-98.807c40.648 0 73.6-33.179 73.6-74.106h98.134c0 45.86-18.094 89.84-50.3 122.268s-75.887 50.644-121.434 50.644z" glyph-name="danao" horiz-adv-x="1024" unicode="" vert-adv-y="1024"/><glyph d="M740.648 704.574c30.07-5.012 50.387-33.454 45.375-63.524l-22.41-134.444h55.054c101.62 0 184-82.38 184-183.998V77.277c0-101.619-82.38-183.999-184-183.999H205.333c-101.62 0-184 82.38-184 183.999v245.33c0 101.62 82.38 184 184 184h55.053L237.977 641.05c-5.012 30.07 15.304 58.512 45.375 63.524s58.512-15.304 63.524-45.374L371.409 512a56 56 0 0 0 .633-5.395h279.916q.181 2.687.633 5.395L677.124 659.2c5.012 30.07 33.454 50.386 63.524 45.374m78.019-308.367H205.333c-40.649 0-73.6-32.95-73.6-73.6V77.278c0-40.65 32.951-73.6 73.6-73.6h613.334c40.649 0 73.6 32.95 73.6 73.6v245.33c0 40.65-32.951 73.6-73.6 73.6M316.96 304.208c30.485 0 55.2-24.715 55.2-55.2v-49.066c0-30.484-24.715-55.2-55.2-55.2s-55.2 24.716-55.2 55.2v49.066c0 30.485 24.715 55.2 55.2 55.2m390.08 0c30.485 0 55.2-24.715 55.2-55.2v-49.066c0-30.484-24.715-55.2-55.2-55.2s-55.2 24.716-55.2 55.2v49.066c0 30.485 24.715 55.2 55.2 55.2" glyph-name="jiqiren" horiz-adv-x="1024" unicode="" vert-adv-y="1024"/><glyph d="M232.748 690.893c31.482-.7 52.353-11.272 59.579-32.066 9.656-24.944-3.993-42.671-36.975-60.983-7.163-3.976-13.127-7.001-27.07-13.812l-3.018-1.46 4.541-.13c37.407-.868 84.016.258 153.507 2.957l10.084.397c60.932 2.427 95.578 3.552 124.994 3.65l8.28.001c6.813-.022 13.442-.101 20.172-.233 159.997-3.19 286.088-70.164 373.756-198.623 47.684-69.882 49.795-143.242 20.446-223.281l-.905-2.372 1.609-.4c6.42-1.722 12.49-4.12 18.29-7.313l4.3-2.547 2.9-1.825c5.497-3.477 8.763-5.652 12.693-8.514 27.141-19.767 39.846-42.733 30.513-72.974-5.184-16.735-16.953-30.574-33.428-39.262-.364-.2-.364-.2-.888-.461-20.82-10.509-47.445-11.662-71.599-3.296-5.202 1.857-9.891 3.342-19.854 6.364-1.11.347-3.287 1.035-5.608 1.77l-1.371.437-1.723-2.445c-17.557-23.67-46.422-47.477-82.648-67.588l-7.343-3.972c-96.222-50.724-221.48-68.82-351.154-40.466C323.94-53.26 250.15-7.579 216.338 58.803c-23.938 46.995-24.142 100.443-6.34 141.293 11.07 23.052 38.152 51.586 79.172 85.496l4.44 3.634-2.824 3.997c-7.526 11.227-12.035 22.522-12.71 33.947l-.073 4.291c.372 16.184 8.497 30.498 22.436 39.94 26.157 17.863 58.495 13.402 92.903-4.127l3.522-1.845 5.009 3.396a2713 2713 0 0 0 10.23 6.923l.249.177-.641.117q-3.098.55-6.362.994l-6.703.778c-72.471 7.203-214.911 36.057-262.35 56.195C25.576 480.913-5.366 539.001 17.068 595.411c21.64 54.372 137.575 97.252 215.68 95.482M76.01 564.618l-.036-.429c-.67-22.728 35.067-48.869 85.645-70.296 40.072-16.977 175.05-44.523 243.403-51.314 29.662-2.913 53.338-10.339 72.022-20.826L480 420.02l1.272.803c27.682 17.471 53.085 32.952 70.799 43.41l4.265 2.509c14.923 10.334 35.859 4.635 45.14-11.125 9.083-15.467 3.95-35.367-11.502-44.54l-8.013-4.735-15.987-9.55q-3.99-2.4-7.967-4.812l-15.858-9.68C407.84 299.73 287.194 210.616 269.103 172.996c-9.804-22.524-9.492-55.923 5.137-84.675 23.854-46.783 84.003-82.5 174.496-102.315C606.913-48.622 757.976-.792 816.213 64.18l2.624 3.031-1.23 1.316-1.677 2.11c-10.82 14.358-7.968 34.72 6.361 45.52a32.5 32.5 0 0 0 13.828 6.081l2.28.312-2.343 2.139a104 104 0 0 0-6.384 6.688l-2.654 3.195c-11.174 14.047-8.845 34.474 5.217 45.736 12.116 9.597 29.414 9.105 40.987-.46l2.17-1.96 2.362 5.81c24.8 62.872 24.94 114.288-7.365 164.932l-3.458 5.236c-76.46 111.981-181.164 167.49-321.353 170.28-6.418.125-12.736.2-19.246.22l-7.923-.001c-28.185-.1-61.812-1.187-122.447-3.566-160.287-6.375-226.216-5.145-271.555 8.88-1.638.427-1.638.427-2.469.75l-.255.1-5.355 1.832c-12.294 4.462-22.227 10.007-29.83 16.904l-3.116 3.039a32.4 32.4 0 0 0-6.915 10.915zm532.134-415.026c18.726 0 33.873-15.168 33.873-33.904 0-18.754-15.142-33.924-33.873-33.924-18.732 0-33.875 15.17-33.875 33.924 0 18.736 15.148 33.904 33.875 33.904m288.463-48.3a17 17 0 0 0-3.225-.207l-.224-.007-.218-.018-.21-.015c-.217-.017-.217-.017-.552-.04-.783-.042-.783-.042-.572.002l-.791-.005 1.772-.597c2.229-.713 4.632-1.461 7.776-2.427l3.413-1.046 1.26-.389c10.076-3.11 15.317-4.788 20.954-6.782 6.74-2.334 13.835-2.512 18.85-.841l1.682.704-1.2-.483-1.015.802c-2.22 1.681-5.203 3.72-9.192 6.291l-3.185 2.032c-8.46 5.313-17.75 6.238-35.323 3.025M389.333 219.335c18.726 0 33.874-15.165 33.874-33.9 0-18.758-15.142-33.93-33.875-33.93-18.732 0-33.873 15.172-33.873 33.93 0 18.735 15.147 33.9 33.873 33.9" glyph-name="aifadian" horiz-adv-x="1024" unicode="" vert-adv-y="1024"/><glyph d="M512-212a512 512 0 1 1 0 1024 512 512 0 1 1 0-1024m0 768c26.6 0 48-21.4 48-48V284c0-26.6-21.4-48-48-48s-48 21.4-48 48v224c0 26.6 21.4 48 48 48m-64-448a64 64 0 1 0 128 0 64 64 0 1 0-128 0" glyph-name="circle-exclamation-solid" horiz-adv-x="1024" unicode="" vert-adv-y="1024"/><glyph d="M716.8 735.2a230.4 230.4 0 0 0 230.4-230.4V95.2a230.4 230.4 0 0 0-230.4-230.4H307.2A230.4 230.4 0 0 0 76.8 95.2v409.6a230.4 230.4 0 0 0 230.4 230.4zm0 76.8H307.2A307.2 307.2 0 0 1 0 504.8V95.2A307.2 307.2 0 0 1 307.2-212h409.6A307.2 307.2 0 0 1 1024 95.2v409.6A307.2 307.2 0 0 1 716.8 812M335.616 489.952a490 490 0 0 0-48.384-68.352l-54.272 35.072a366.85 366.85 0 0 1 78.08 128l61.44-13.568-9.728-25.6H512v-55.808h-76.8a300.3 300.3 0 0 0 29.44-48.64l-56.32-21.504a535 535 0 0 1-39.424 70.144Zm-61.952-143.36h63.744v-332.8h-63.744Zm79.104 97.792a628.5 628.5 0 0 0 73.728-76.8l-47.104-32.512a768 768 0 0 1-72.192 80.384Zm45.056-122.368h235.264V80.096H397.824Zm60.672-94.464H573.44v43.008H458.496Zm114.944-94.72v44.288H458.496v-44.288ZM636.672 18.4l-15.36 57.856 54.016-2.048c12.8 0 19.2 8.96 19.2 25.6v261.12H470.784v58.368H757.76V82.4c0-43.264-23.296-65.024-70.144-65.024Zm-39.168 471.552a491 491 0 0 0-37.632-59.648l-54.016 35.072a338.4 338.4 0 0 1 63.232 119.808l60.928-13.568c-4.096-11.52-6.912-20.224-8.704-25.6H791.04v-55.808h-88.064a333 333 0 0 0 27.136-43.776l-56.576-21.504a533.5 533.5 0 0 1-37.376 65.28Z" glyph-name="jianben" horiz-adv-x="1024" unicode="" vert-adv-y="1024"/><glyph d="M876.437 159.144V563.08c0 53.66-34.283 46.207-34.283 46.207H229.543c-56.64 0-49.188-34.283-49.188-34.283V156.163L31.301 72.693V26.486h974.813v49.188zm-34.283-35.773h52.17v-10.434h-52.17zm65.584-16.396V96.542h-52.169v10.433zm-120.734 32.792h52.17v-10.434h-52.17zm-2.98-32.792h52.168V96.542h-52.169zm-10.434 5.962v10.434h52.168v-10.434zm-50.679 26.83h52.17v-10.434h-52.17zm-10.434-32.792h52.17V96.542h-52.17zm-5.962 5.962v10.434h53.66v-10.434zm-50.678 26.83h52.169v-10.434h-52.169zm-16.396-16.396h52.169v-10.434H639.44zm55.15-16.396V96.542h-52.169v10.433zm-110.3 32.792h52.169v-10.434h-52.169zm-11.924-16.396h52.169v-10.434h-52.17zm52.169-16.396V96.542h-52.17v10.433zm-104.338 32.792h52.169v-10.434h-52.169zm-14.905-26.83v10.434h52.168v-10.434zm47.697-5.962V96.542H500.82v10.433zm-98.376 32.792h52.17v-10.434h-52.17zm-16.396-26.83v10.434h52.17v-10.434zm43.226-5.962V96.542h-52.169v10.433zm-90.923 32.792h52.169v-10.434h-52.169zm-19.377-26.83v10.434h52.169v-10.434zm40.245-5.962V96.542h-52.17v10.433zm-86.452 32.792h52.17v-10.434h-52.17zm-87.941-26.83v10.434h52.168v-10.434zm32.792-5.962V96.542h-52.17v10.433zm17.886 0h52.169V96.542h-52.17zm16.396 5.962v10.434h52.169v-10.434zm-43.226 26.83h52.17v-10.434h-52.17zm-64.093 0h52.169v-10.434H196.75zm-28.32-16.396H220.6v-10.434h-52.17zm-22.358-16.396h52.169V96.542h-52.17zm445.67-68.564H463.558v19.377l128.187-1.491zM38.755 71.202l19.377 11.925h931.587l14.905-11.925z" glyph-name="bijiben" horiz-adv-x="1024" unicode="" vert-adv-y="1024"/><glyph d="M512 748c126.72-3.328 232.192-47.168 316.48-131.456C912.832 532.128 956.672 426.656 960 300c-3.328-126.72-47.168-232.192-131.52-316.48C744.192-100.832 638.72-144.672 512-148c-126.72 3.328-232.192 47.168-316.544 131.52C111.232 67.808 67.392 173.28 64 300c3.328 126.72 47.168 232.192 131.456 316.544C279.872 700.768 385.344 744.608 512 748m67.008-275.008a61.44 61.44 0 0 1 43.008 15.488c11.328 10.304 17.024 24.128 17.024 41.472s-5.696 31.232-17.024 41.536a60.67 60.67 0 0 1-42.496 15.488 60.67 60.67 0 0 1-42.496-15.488c-11.328-10.304-16.96-24.192-16.96-41.536 0-17.28 5.632-31.168 16.96-41.472a60.03 60.03 0 0 1 41.984-15.488m12.032-360c0 4.032.32 9.344.96 16q.96 9.984 0 19.008l-52.992-60.992c-5.312-6.016-10.88-10.688-16.512-14.016-5.696-3.328-10.496-4.352-14.464-3.008-6.016 2.688-8.704 7.36-8 14.016l88 276.992c3.264 18.688.32 34.688-9.024 48s-24.32 21.312-44.992 24c-23.36-.64-48.832-10.496-76.48-29.504-27.712-19.008-51.84-43.2-72.512-72.512V316q-.96-10.08 0-19.008l52.928 60.992q8.064 8.928 16.512 14.016c5.76 3.328 10.24 4.288 13.568 2.944 6.656-3.264 8.96-8.64 6.976-16l-87.04-275.968a49.66 49.66 0 0 1 7.04-44.48c9.344-13.056 25.664-21.888 49.024-26.56 33.28.64 61.312 10.368 83.968 29.056a322 322 0 0 1 63.04 72" glyph-name="xiangqing" horiz-adv-x="1024" unicode="" vert-adv-y="1024"/><glyph d="m371.97 690.095 8.234-10.782L555.008 450.4l218.44 231.107 8.118 8.588h142.637l-43.73-46.269-261.721-276.903 299.047-391.61 33.658-44.075H653.902l-8.233 10.782L454.165 192.8 215.09-60.174l-8.117-8.588H64.335l43.731 46.27 282.355 298.77L108.073 646.02l-33.657 44.075zm-51.927-103.29h-35.968L705.792 34.571h35.968z" glyph-name="twitterx" horiz-adv-x="1024" unicode="" vert-adv-y="1024"/><glyph d="M706.322 366.658c70.075 0 126.881-61.769 126.881-137.964 0-76.196-56.806-137.965-126.881-137.965l-.643.002.695-.5-168.022 3.19q46.904 11.277 62.628 29.71 6.23 7.305 10.82 13.575c-20.137 24.402-32.36 56.643-32.36 91.988 0 76.196 56.807 137.964 126.882 137.964m.877-78.446c-22.955 0-41.565-17.877-41.565-39.928v-35.491c0-22.051 18.61-39.928 41.565-39.928s41.565 17.877 41.565 39.928v35.491c0 22.051-18.61 39.928-41.565 39.928m33.45 419.912c30.07-5.048 50.386-33.69 45.374-63.971l-22.41-135.392h55.054c101.62 0 184-82.96 184-185.295V76.406c0-102.335-82.38-185.295-184-185.295H205.333c-101.62 0-184 82.96-184 185.295v247.06c0 102.335 82.38 185.295 184 185.295h55.053l-22.409 135.392c-5.012 30.282 15.304 58.923 45.375 63.97 30.07 5.048 58.512-15.41 63.524-45.693l24.533-148.236c.302-1.818.51-3.632.633-5.433h279.916q.181 2.706.633 5.433l24.533 148.236c5.012 30.282 33.454 50.741 63.524 45.694m78.018-310.54H205.333c-40.649 0-73.6-33.182-73.6-74.118V76.406c0-40.935 32.951-74.118 73.6-74.118h613.334c40.649 0 73.6 33.183 73.6 74.118v247.06c0 40.936-32.951 74.118-73.6 74.118M316.96 304.937c30.485 0 55.2-24.89 55.2-55.589v-49.412c0-30.7-24.715-55.588-55.2-55.588s-55.2 24.888-55.2 55.588v49.412c0 30.7 24.715 55.589 55.2 55.589" glyph-name="PostChat" horiz-adv-x="1024" unicode="" vert-adv-y="1024"/><glyph d="M469.248 744.587a85.33 85.33 0 0 0 85.504 0l320-185.259a85.33 85.33 0 0 0 42.581-73.856V114.528a85.33 85.33 0 0 0-42.581-73.813l-320-185.302a85.33 85.33 0 0 0-85.504 0l-320 185.259a85.33 85.33 0 0 0-42.581 73.856v370.944a85.33 85.33 0 0 0 42.581 73.813zM192 485.472v-.213L469.419 324.66A85.33 85.33 0 0 0 512 250.805V-70.73l320 185.259v370.944L512 670.731zM261.632 287.2c0 23.552-16.555 52.224-36.95 64s-36.949 2.219-36.949-21.333 16.555-52.224 36.95-64 36.949-2.219 36.949 21.333M372.437 9.952c20.395-11.776 36.95-2.261 36.95 21.333 0 23.552-16.555 52.224-36.95 64s-36.949 2.219-36.949-21.333 16.555-52.224 36.95-64M224.683 95.2c20.394-11.776 36.949-2.219 36.949 21.333s-16.555 52.224-36.95 64-36.949 2.219-36.949-21.333 16.555-52.224 36.95-64m147.754 85.333c20.395-11.818 36.95-2.261 36.907 21.334 0 23.552-16.512 52.181-36.95 64-20.394 11.776-36.949 2.218-36.949-21.334 0-23.594 16.555-52.224 36.992-64m263.211 290.134c20.395 11.776 20.395 30.89 0 42.666s-53.504 11.776-73.899 0c-20.437-11.776-20.437-30.89 0-42.666 20.395-11.776 53.504-11.776 73.899 0m-204.8 42.666c20.395-11.776 20.395-30.89 0-42.666s-53.504-11.776-73.899 0-20.394 30.89 0 42.666 53.504 11.776 73.899 0m251.605-356.266c25.515 14.762 46.208 50.56 46.208 80s-20.693 41.386-46.165 26.666c-25.515-14.72-46.208-50.517-46.208-80 0-29.44 20.693-41.386 46.165-26.666" glyph-name="dice-line" horiz-adv-x="1024" unicode="" vert-adv-y="1024"/></font>
</defs>
</svg>
